<svg width="380" height="380" viewBox="0 0 380 380" fill="none" xmlns="http://www.w3.org/2000/svg">
<g clip-path="url(#clip0_41_709)">
<path d="M359.945 157.98C358.456 157.682 338.145 153.811 311.401 156.789C311.222 130.998 305.564 112.533 305.266 111.64L302.467 102.824L293.413 104.552C292.162 104.79 266.55 109.853 239.091 126.888C223.605 86.8615 197.278 67.1461 195.61 65.9548L189.475 61.4875L183.34 65.9548C181.732 67.1461 155.345 86.8615 139.859 126.888C112.46 109.912 86.7882 104.79 85.5969 104.552L76.5433 102.824L73.8034 111.64C73.5056 112.533 67.847 130.938 67.6684 156.789C40.9245 153.811 20.6134 157.682 19.1243 157.98L9.4751 159.886L10.8451 169.595C11.0833 171.084 16.3249 206.107 40.9245 241.368C63.7372 274.128 108.052 313.142 189.475 313.142C270.898 313.142 315.213 274.128 338.026 241.368C362.625 206.107 367.867 171.084 368.046 169.595L369.416 159.886L359.766 157.98H359.945ZM287.754 127.484C289.244 135.108 290.852 146.722 290.673 160.362C277.39 163.519 263.393 168.701 249.872 176.802C249.217 166.259 247.668 156.431 245.524 147.437C261.666 136.597 277.867 130.521 287.754 127.484ZM91.3745 127.484C101.202 130.521 117.404 136.537 133.605 147.437C131.461 156.431 129.912 166.259 129.257 176.802C115.736 168.701 101.739 163.519 88.4559 160.362C88.2772 146.722 89.8854 135.048 91.3745 127.424V127.484ZM58.4956 230.23C44.0813 209.74 36.9933 189.012 33.7769 177.04C52.4202 175.551 92.3275 175.73 125.564 199.138C153.082 218.437 170.713 249.767 178.158 292.235C125.862 289.615 85.5969 268.827 58.4361 230.29L58.4956 230.23ZM149.687 191.871C148.496 134.095 176.729 100.323 189.594 88.0527C202.46 100.382 230.693 134.095 229.502 191.871C211.871 207.715 198.529 228.384 189.594 253.638C180.66 228.384 167.318 207.715 149.687 191.871ZM320.693 230.23C293.532 268.767 253.267 289.615 200.971 292.176C208.416 249.707 226.106 218.437 253.565 199.079C280.309 180.316 311.282 176.445 332.069 176.445C337.192 176.445 341.659 176.683 345.352 176.981C342.136 189.012 335.048 209.74 320.633 230.171L320.693 230.23Z" fill="#5E13D8"/>
</g>
<defs>
<clipPath id="clip0_41_709">
<rect width="360" height="360" fill="white" transform="translate(9.59424 10.1187)"/>
</clipPath>
</defs>
</svg>
